<svg width="93" height="32" viewBox="0 0 93 32" fill="none" xmlns="http://www.w3.org/2000/svg">
<path fill-rule="evenodd" clip-rule="evenodd" d="M47.3686 1.81289C47.3215 2.47767 47.8027 3.07648 48.4415 3.15102C49.0832 3.22433 49.6689 2.74383 49.7531 2.08459C49.8357 1.42057 49.3555 0.825878 48.6765 0.74528C48.0039 0.669734 47.4162 1.14877 47.3687 1.81288L47.3686 1.81289Z" fill="black"/>
<path fill-rule="evenodd" clip-rule="evenodd" d="M40.6354 1.74972C40.6767 2.43075 41.2255 2.87313 41.8697 2.88346C42.5126 2.89184 43.0324 2.3575 43.0295 1.69072C43.0265 1.02393 42.4724 0.476498 41.7912 0.470293C41.1105 0.461887 40.595 1.09716 40.6354 1.74971L40.6354 1.74972Z" fill="black"/>
<path fill-rule="evenodd" clip-rule="evenodd" d="M33.9548 2.59146C34.0815 3.24631 34.6996 3.67974 35.3295 3.55749C35.9624 3.43687 36.3995 2.80343 36.3096 2.14161C36.2207 1.48106 35.6039 1.04956 34.9347 1.17383C34.2672 1.30177 33.8276 1.93706 33.9548 2.59146Z" fill="black"/>
<path fill-rule="evenodd" clip-rule="evenodd" d="M27.4264 4.25019C27.6396 4.88476 28.3124 5.25076 28.9304 5.06994C29.548 4.88737 29.9054 4.21873 29.7294 3.57501C29.5505 2.93137 28.8787 2.56555 28.227 2.75893C27.5711 2.95048 27.2144 3.61866 27.4264 4.25019Z" fill="black"/>
<path fill-rule="evenodd" clip-rule="evenodd" d="M21.1839 6.78625C21.4798 7.39254 22.1702 7.61084 22.7587 7.35102C23.3541 7.11047 23.6289 6.41748 23.3693 5.80359C23.111 5.18878 22.3898 4.89632 21.7569 5.15112C21.1365 5.42608 20.8954 6.19308 21.1839 6.78626L21.1839 6.78625Z" fill="black"/>
<path fill-rule="evenodd" clip-rule="evenodd" d="M15.3342 10.1225C15.7036 10.6781 16.4389 10.8466 16.9778 10.496C17.5182 10.1462 17.6822 9.39364 17.3474 8.81717C17.01 8.24257 16.2744 8.07514 15.7038 8.44373C15.1314 8.81547 14.9667 9.56561 15.3342 10.1225Z" fill="black"/>
<path fill-rule="evenodd" clip-rule="evenodd" d="M9.931 14.1398C10.3685 14.6426 11.1325 14.7303 11.6378 14.3289C12.1426 13.9308 12.2214 13.1801 11.8101 12.6516C11.4027 12.1244 10.6391 12.0412 10.1046 12.4616C9.57196 12.8846 9.49281 13.6375 9.93098 14.1398L9.931 14.1398Z" fill="black"/>
<path fill-rule="evenodd" clip-rule="evenodd" d="M5.14432 18.8789C5.64316 19.3222 6.38846 19.2823 6.80519 18.7967C7.24223 18.3217 7.25404 17.5996 6.77387 17.1255C6.30567 16.6613 5.50283 16.6413 5.04197 17.144C4.60043 17.6601 4.64513 18.4379 5.14433 18.8789L5.14432 18.8789Z" fill="black"/>
<path fill-rule="evenodd" clip-rule="evenodd" d="M0.997127 24.1883C1.55155 24.5586 2.29971 24.436 2.6696 23.9081C3.03757 23.3816 2.90797 22.6278 2.37507 22.2265C1.8462 21.8213 1.09757 21.9433 0.70809 22.5008C0.314204 23.0575 0.445171 23.8133 0.997127 24.1883Z" fill="black"/>
<path fill-rule="evenodd" clip-rule="evenodd" d="M81.6636 20.7725C81.1388 21.188 81.0224 21.9451 81.4019 22.4652C81.7829 22.9845 82.5331 23.0942 83.0791 22.7105C83.6241 22.3242 83.7407 21.5682 83.338 21.0206C82.9355 20.4684 82.186 20.3591 81.6636 20.7725Z" fill="black"/>
<path fill-rule="evenodd" clip-rule="evenodd" d="M77.162 15.7587C76.6918 16.2426 76.7203 16.9661 77.1641 17.4317C77.5922 17.9105 78.3373 17.9342 78.827 17.482C79.3179 17.0307 79.3487 16.2531 78.8946 15.7439C78.4257 15.2533 77.6224 15.2863 77.162 15.7587L77.162 15.7587Z" fill="black"/>
<path fill-rule="evenodd" clip-rule="evenodd" d="M72.0415 11.3844C71.6439 11.9201 71.7345 12.6691 72.2469 13.0573C72.7592 13.4473 73.5227 13.3466 73.9517 12.8363C74.378 12.3242 74.2863 11.5754 73.7462 11.1634C73.2026 10.7508 72.441 10.8499 72.0415 11.3844Z" fill="black"/>
<path fill-rule="evenodd" clip-rule="evenodd" d="M66.4311 7.66227C66.1062 8.24424 66.2825 8.99273 66.8314 9.33219C67.377 9.67225 68.11 9.49205 68.4679 8.92611C68.8259 8.36412 68.6455 7.61755 68.0688 7.25708C67.4904 6.89922 66.7552 7.07982 66.4311 7.66225L66.4311 7.66227Z" fill="black"/>
<path fill-rule="evenodd" clip-rule="evenodd" d="M60.3506 4.7637C60.1025 5.3832 60.3925 6.07092 60.9907 6.29848C61.5856 6.54877 62.269 6.31525 62.5524 5.70285C62.8305 5.10507 62.5774 4.34293 61.9483 4.07964C61.3131 3.83905 60.5964 4.14461 60.3506 4.76369L60.3506 4.7637Z" fill="black"/>
<path fill-rule="evenodd" clip-rule="evenodd" d="M53.9504 2.66164C53.7899 3.30872 54.1587 3.97111 54.7806 4.14029C55.4007 4.30813 56.066 3.93082 56.2631 3.29347C56.4651 2.65862 56.0967 1.99558 55.4402 1.818C54.7829 1.63602 54.1162 2.01528 53.9504 2.66164Z" fill="black"/>
<path d="M73.9428 28.1546L89.0359 31.1186L91.9998 16.0254" stroke="black" stroke-width="1.13248" stroke-miterlimit="10"/>
</svg>
