<svg width="41" height="41" viewBox="0 0 41 41" fill="none" xmlns="http://www.w3.org/2000/svg">
<path d="M19.682 11.63C19.7114 11.765 19.7954 11.8823 19.9144 11.9537C20.033 12.0251 20.1758 12.0436 20.3091 12.0062C22.9463 11.2583 25.7518 11.2583 28.3889 12.0062C28.434 12.0188 28.4799 12.0254 28.5257 12.0254C28.616 12.0254 28.7049 12.0013 28.7836 11.954C28.9023 11.8826 28.9866 11.7657 29.016 11.6303L30.2292 6.04244C30.3104 5.6694 30.2194 5.28517 29.9797 4.98776C29.74 4.69031 29.3834 4.51988 29.0016 4.51988L19.6955 4.51953C19.3137 4.51953 18.9575 4.68995 18.7178 4.98706C18.4781 5.28416 18.3868 5.66875 18.4679 6.0421L19.682 11.63ZM19.4994 5.61692C19.5277 5.58193 19.591 5.52279 19.696 5.52279H29.0021C29.1075 5.52279 29.1708 5.58193 29.1991 5.61727C29.2271 5.65227 29.2716 5.72646 29.2495 5.82934L28.1475 10.9039C25.6566 10.2873 23.0419 10.2873 20.551 10.9039L19.4494 5.82934C19.4273 5.72646 19.4714 5.65192 19.4998 5.61692H19.4994Z" fill="#010009"/>
<path d="M29.7281 17.6103C29.5702 17.8382 29.6269 18.1506 29.8544 18.3085C31.2097 19.248 32.2785 20.5383 32.944 22.0395C33.027 22.2267 33.2107 22.338 33.4028 22.338C33.4707 22.338 33.5396 22.324 33.6058 22.2946C33.8591 22.1823 33.9735 21.8859 33.8609 21.6329C33.1204 19.9629 31.9327 18.5282 30.4258 17.4837C30.1983 17.3262 29.8859 17.3829 29.728 17.6103L29.7281 17.6103Z" fill="#110101"/>
<path d="M33.7064 25.6571C33.7064 28.9214 31.9263 31.9253 29.061 33.4969C28.8181 33.6302 28.7289 33.935 28.8622 34.1782C28.9535 34.3444 29.1253 34.4385 29.3028 34.4385C29.3843 34.4385 29.4669 34.4186 29.5435 34.377C32.7301 32.6286 34.7097 29.2874 34.7097 25.6571C34.7097 25.3799 34.4851 25.1553 34.2079 25.1553C33.9311 25.1553 33.7064 25.3799 33.7064 25.6571L33.7064 25.6571Z" fill="#010009"/>
<path d="M0.501589 36.1389H4.26309L4.26274 38.1273C4.26274 39.2338 5.13655 40.1338 6.2105 40.1338H9.94334C11.0173 40.1338 11.8911 39.2334 11.8911 38.1273V36.1393H12.0713C13.3742 37.7511 14.951 39.0756 16.7679 40.0723C16.8418 40.1125 16.925 40.1339 17.0094 40.1339H31.6879C31.7722 40.1339 31.8552 40.1125 31.929 40.0723C36.9899 37.2958 40.1338 31.9896 40.1338 26.2251C40.1338 21.1642 37.6999 16.411 33.6052 13.4413L35.5201 4.62242C35.7661 3.48961 35.49 2.32259 34.7625 1.4201C34.0346 0.517623 32.953 0 31.7936 0H16.9036C15.7667 0 14.6983 0.501122 13.9718 1.37495C13.3559 2.11578 13.0517 3.04876 13.0979 3.99496H11.8913V2.00662C11.8913 0.900062 11.0175 8.9536e-05 9.94357 8.9536e-05H6.21073C5.13678 8.9536e-05 4.26297 0.90051 4.26297 2.00662V3.9946L0.501821 3.99495C0.224663 3.99495 0 4.21962 0 4.49678V10.8364C0 11.1135 0.224663 11.3382 0.501821 11.3382H4.26332V28.7966L0.501821 28.7962C0.224663 28.7962 0 29.0209 0 29.298V35.6376C0 35.9148 0.22443 36.1389 0.501589 36.1389ZM10.8881 38.1273C10.8881 38.6805 10.4647 39.1306 9.94396 39.1306H6.21112C5.69041 39.1306 5.26698 38.6805 5.26698 38.1273V36.1393L10.8881 36.139V38.1273ZM14.7434 2.01638C15.2785 1.37249 16.0662 1.00326 16.9036 1.00326H31.7935C32.6477 1.00326 33.4449 1.3847 33.981 2.04962C34.5171 2.71486 34.7204 3.57463 34.5395 4.40929L32.5543 13.5524C32.5113 13.7508 32.5918 13.9555 32.7587 14.0713C36.7484 16.8373 39.1304 21.3809 39.1304 26.2254C39.1304 31.5816 36.2322 36.5151 31.5581 39.131H17.1384C15.7257 38.3405 14.4712 37.3347 13.3905 36.1397H15.6518C15.929 36.1397 16.1537 35.915 16.1537 35.6378V29.2983C16.1537 29.0211 15.929 28.7964 15.6518 28.7964H11.8907V18.263C11.8945 18.2574 11.8998 18.2536 11.9036 18.2476C12.0237 18.0611 12.1476 17.8774 12.276 17.6961C13.2789 16.2798 14.511 15.0603 15.9378 14.071C16.1047 13.9556 16.1852 13.7505 16.1421 13.5521L15.661 11.3359C15.9336 11.331 16.1537 11.1098 16.1537 10.8362V4.49661C16.1537 4.21945 15.929 3.99479 15.6519 3.99479H14.0995C14.0523 3.28161 14.2784 2.57504 14.7427 2.01657L14.7434 2.01638ZM14.6353 11.3377L15.0919 13.4412C13.877 14.322 12.8099 15.3722 11.8911 16.5543L11.8914 11.3377H14.6353ZM5.26645 2.00653C5.26645 1.45327 5.68988 1.00326 6.21059 1.00326H9.94342C10.4641 1.00326 10.8876 1.45329 10.8876 2.00653V3.99452L5.26645 3.99487V2.00653ZM1.00344 4.99823H15.1516V10.3345H1.00344V4.99823ZM5.26645 11.3378H10.8883V28.7962H5.26645V11.3378ZM1.00344 29.7995H15.1516V35.1358H1.00344V29.7995Z" fill="#010009"/>
</svg>
