<svg width="43" height="43" viewBox="0 0 43 43" fill="none" xmlns="http://www.w3.org/2000/svg">
<path d="M10.5531 0.000967068C10.3065 0.0459159 10.13 0.253503 10.1343 0.493004V2.95249H3.43466C2.01616 2.95249 0.85791 4.05802 0.85791 5.41197V39.8447C0.85791 41.1987 2.01616 42.3042 3.43466 42.3042H30.2329C31.6514 42.3042 32.8096 41.1987 32.8096 39.8447V26.6092L37.5285 18.9693L40.862 20.8448L36.4975 27.793C36.3944 27.9024 36.3483 28.0503 36.3717 28.1962C36.3951 28.3416 36.4857 28.4696 36.6183 28.5448C36.751 28.6199 36.9124 28.6343 37.0572 28.5839C37.2025 28.5334 37.3161 28.4237 37.3675 28.2847L42.0054 20.9062C42.0762 20.7944 42.0975 20.6599 42.064 20.5329C42.031 20.406 41.9461 20.2969 41.8282 20.23L38.0598 18.1088L39.5574 15.6953C40.5157 14.1464 39.9585 12.1677 38.3175 11.2834L38.2689 11.2529C36.6279 10.3687 34.5088 10.9183 33.5504 12.4672L32.8096 13.666V5.41152C32.8096 4.05757 31.6513 2.95203 30.2328 2.95203H23.5332V0.492551C23.5332 0.220796 23.3027 0.000514713 23.018 0.000514713H10.6496C10.6338 -0.000171571 10.6176 -0.000171571 10.6014 0.000514713C10.5853 -0.000171571 10.5689 0.000280784 10.5531 0.000967068ZM11.1649 0.984672H22.5026V5.90364H11.1649V0.984672ZM3.43468 3.93623H10.1343V6.39571C10.1343 6.66746 10.3651 6.88775 10.6495 6.88775H23.0179C23.3026 6.88775 23.533 6.66746 23.533 6.39571V3.93623H30.2327C31.0983 3.93623 31.7788 4.58575 31.7788 5.412V15.3272L26.6253 23.6586C26.639 23.5206 26.5908 23.383 26.4927 23.2808C26.3945 23.1782 26.2554 23.1202 26.1098 23.1205H16.8335C16.8173 23.1199 16.8011 23.1199 16.785 23.1205C16.5003 23.1336 16.2806 23.3638 16.2939 23.6356C16.3072 23.9073 16.5488 24.1173 16.8335 24.1046H26.1098C26.2123 24.107 26.3133 24.0802 26.3999 24.0277L22.9694 29.5616C22.6901 30.0131 22.5352 30.5044 22.5025 30.991H16.8338C16.8176 30.9903 16.8014 30.9903 16.7853 30.991C16.5005 31.0037 16.2809 31.2342 16.2942 31.506C16.3075 31.7778 16.5491 31.9874 16.8338 31.9747H22.5991C22.8148 32.791 23.3734 33.5225 24.2096 33.973L24.2577 34.0039C25.8991 34.8881 28.0182 34.3539 28.9766 32.8047L31.7787 28.2701V39.8454C31.7787 40.6713 31.0982 41.3212 30.2326 41.3212H3.43435C2.56909 41.3212 1.88821 40.6714 1.88821 39.8454V5.41269C1.88821 4.58647 2.56906 3.93692 3.43435 3.93692L3.43468 3.93623ZM36.3693 11.8067C36.8312 11.7728 37.3035 11.8644 37.7382 12.0987L37.8025 12.1293C38.9619 12.7541 39.3332 14.1249 38.6563 15.2191L37.1744 17.6172L33.0677 15.3114C33.0469 15.2997 33.0257 15.2894 33.0034 15.2805L34.4528 12.9442C34.8759 12.2604 35.5993 11.863 36.3693 11.8067ZM12.6788 12.283C12.6572 12.2868 12.6356 12.2919 12.6144 12.2984C12.5005 12.3221 12.3984 12.3815 12.3247 12.4676L9.02323 16.08L7.8474 15.3268C7.73201 15.2534 7.59109 15.2266 7.45521 15.2527C7.31932 15.2784 7.19963 15.355 7.12269 15.4651C7.04576 15.5752 7.01808 15.7097 7.04504 15.8394C7.07236 15.9695 7.15253 16.0834 7.26757 16.1568L8.81371 17.1405C9.0312 17.2774 9.32165 17.238 9.49025 17.0482L13.0976 13.1133C13.2461 12.9651 13.2827 12.7445 13.1896 12.5595C13.0965 12.3749 12.8927 12.2648 12.6788 12.283ZM16.7373 15.2499C16.4526 15.2753 16.2434 15.5162 16.2704 15.7879C16.297 16.0597 16.5493 16.259 16.834 16.2336H26.1104C26.2484 16.2354 26.3814 16.1846 26.4795 16.0919C26.578 15.9996 26.633 15.8734 26.633 15.7416C26.633 15.6102 26.578 15.4839 26.4795 15.3913C26.3814 15.299 26.2484 15.2479 26.1104 15.2499H16.834C16.8179 15.2492 16.8017 15.2492 16.7855 15.2499C16.7693 15.2492 16.7535 15.2492 16.7373 15.2499ZM32.4877 16.1259C32.5079 16.1431 32.5294 16.1585 32.5521 16.1722L36.643 18.478L28.0751 32.3126C27.3982 33.4068 25.9491 33.7825 24.7898 33.158L24.7255 33.1272C23.5657 32.5027 23.1948 31.147 23.8717 30.0528L32.4877 16.1259ZM12.679 20.1535C12.6574 20.1573 12.6358 20.1624 12.6146 20.1689C12.5007 20.1923 12.3986 20.252 12.3249 20.3381L9.02341 23.9505L7.84759 23.197C7.73219 23.1235 7.59128 23.0971 7.4554 23.1229C7.31951 23.1489 7.19981 23.2255 7.12288 23.3356C7.04595 23.4454 7.01827 23.5802 7.04523 23.7099C7.07255 23.8396 7.15272 23.9539 7.26775 24.0273L8.81389 25.011C9.03138 25.1479 9.32183 25.1081 9.49044 24.9187L13.0978 20.9835C13.2463 20.8352 13.2829 20.6146 13.1898 20.43C13.0967 20.2451 12.8929 20.135 12.679 20.1535ZM12.679 28.024C12.6574 28.0278 12.6358 28.0329 12.6146 28.0391C12.5007 28.0628 12.3986 28.1225 12.3249 28.2083L9.02341 31.8206L7.84759 31.0675C7.73219 30.9941 7.59128 30.9673 7.4554 30.9934C7.31952 31.0194 7.19981 31.0956 7.12288 31.2058C7.04595 31.3159 7.01827 31.4508 7.04523 31.5805C7.07255 31.7102 7.15272 31.8241 7.26775 31.8975L8.81389 32.8812C9.03138 33.0181 9.32183 32.9786 9.49044 32.7892L13.0978 28.854C13.2463 28.7058 13.2829 28.4851 13.1898 28.3005C13.0967 28.1156 12.8929 28.0055 12.679 28.024Z" fill="black"/>
</svg>
