<svg width="55" height="45" viewBox="0 0 55 45" fill="none" xmlns="http://www.w3.org/2000/svg">
<path d="M1.4961 14.1375V27.4322C1.4961 27.8456 1.1614 28.1803 0.748055 28.1803C0.334695 28.1803 1.1743e-05 27.8451 1.1743e-05 27.4317V14.1383C1.1743e-05 13.725 0.334707 13.3898 0.748055 13.3898C1.16142 13.3898 1.4961 13.7242 1.4961 14.1375ZM0.748055 10.4995C1.05068 10.4995 1.32375 10.3172 1.43948 10.0376C1.55522 9.75801 1.49109 9.43634 1.27715 9.2224C1.06321 9.00845 0.74154 8.94431 0.46196 9.06006C0.181879 9.1758 0 9.44886 0 9.75149C0 9.9499 0.0786627 10.1403 0.218949 10.2806C0.359235 10.4209 0.549642 10.4995 0.748055 10.4995ZM51.241 2.24541V30.9268C51.241 31.5221 51.0045 32.0932 50.5836 32.5141C50.1628 32.935 49.5916 33.1715 48.9964 33.1715H33.2685C33.3782 35.6511 34.0431 38.0747 35.214 40.2631H38.3565C38.9517 40.2631 39.5229 40.4996 39.9438 40.9205C40.3646 41.3414 40.6011 41.9126 40.6011 42.5078V43.8456C40.6011 44.044 40.5225 44.2344 40.3822 44.3747C40.2414 44.515 40.0515 44.5936 39.8531 44.5936H15.8675C15.4546 44.5936 15.1194 44.2589 15.1194 43.8456V42.5109C15.1194 41.9156 15.3559 41.3444 15.7768 40.9236C16.1976 40.5027 16.7688 40.2662 17.3641 40.2662H20.5066C21.678 38.0778 22.3428 35.6542 22.4521 33.1746H6.73317C6.13745 33.1746 5.56675 32.9381 5.14589 32.5172C4.72503 32.0963 4.48853 31.5251 4.48853 30.9299V2.24464C4.48853 1.64892 4.72503 1.07822 5.14589 0.65736C5.56675 0.236496 6.13745 0 6.73317 0H48.9953C49.5906 0 50.1617 0.236496 50.5826 0.65736C51.0035 1.07822 51.241 1.64969 51.241 2.24541ZM5.98641 27.8344H49.7454V16.0289H31.1649L30.24 19.655C30.1243 19.9541 29.8367 20.151 29.516 20.151C29.1953 20.151 28.9072 19.9541 28.7915 19.655L26.2477 9.70687L22.6368 23.8276C22.5541 24.1518 22.2661 24.3807 21.9319 24.3898H21.9228C21.5506 24.3968 21.2134 24.1688 21.0821 23.8196L18.2387 11.959L17.4741 15.4398C17.4311 15.6372 17.3103 15.809 17.1389 15.9157C17.0127 16.0004 16.8614 16.04 16.7095 16.028H5.98734L5.98641 27.8344ZM5.98641 2.25311V14.5375H16.1369L17.4703 8.46038C17.5449 8.11969 17.8455 7.87517 18.1948 7.87217C18.547 7.85714 18.8576 8.09964 18.9293 8.44485L21.8789 20.7633L25.4703 6.73751C25.5545 6.40783 25.8501 6.17735 26.1898 6.17535C26.5676 6.14979 26.9148 6.38028 27.0386 6.73801L29.5182 16.4496L29.8609 15.1028C29.9942 14.5387 29.9942 14.5387 40.541 14.5387H49.7486L49.7481 2.24572C49.7481 2.04731 49.6694 1.85692 49.5291 1.71663C49.3888 1.57633 49.1984 1.49718 49 1.49718H6.7353C6.32194 1.49718 5.98676 1.83237 5.98676 2.24572L5.98641 2.25311ZM38.3657 41.7588H17.3648C16.9515 41.7588 16.6168 42.0935 16.6168 42.5069V43.0981H39.1133V42.5114C39.1143 42.3125 39.0356 42.1211 38.8953 41.9803C38.755 41.8395 38.5646 41.7588 38.3657 41.7588ZM31.7685 33.1721H23.9614C23.8567 35.6292 23.2614 38.0402 22.2108 40.2638H33.5208C32.4701 38.0402 31.8742 35.6292 31.7685 33.1721ZM49.7449 30.9275L49.7444 29.3307H5.9854V30.932C5.9854 31.1304 6.06456 31.3208 6.20485 31.4611C6.34513 31.6014 6.53553 31.68 6.73394 31.68H48.9961C49.1955 31.68 49.3864 31.6008 49.5267 31.4595C49.6675 31.3182 49.7464 31.1269 49.7449 30.9275ZM49.6056 39.7042L49.0069 40.3029C48.7934 40.5168 48.7298 40.8385 48.8456 41.1176C48.9618 41.3972 49.2344 41.5791 49.5365 41.5791C49.7349 41.5785 49.9248 41.4994 50.0651 41.3591L50.6638 40.7604C50.8136 40.6226 50.9003 40.4292 50.9043 40.2252C50.9083 40.0218 50.8292 39.8249 50.6849 39.6811C50.5411 39.5368 50.3442 39.4582 50.1402 39.4622C49.9363 39.4667 49.7434 39.5538 49.6056 39.7042ZM53.7958 40.3029L53.1971 39.7042C53.0573 39.5599 52.8659 39.4777 52.6655 39.4757C52.4646 39.4742 52.2716 39.5528 52.1298 39.6946C51.9876 39.8369 51.9089 40.0298 51.9104 40.2302C51.9124 40.4312 51.9946 40.6226 52.1389 40.7618L52.7376 41.3606C52.8769 41.5049 53.0683 41.5876 53.2692 41.5891C53.4696 41.5906 53.663 41.5119 53.8048 41.3701C53.9466 41.2278 54.0258 41.0349 54.0238 40.8345C54.0223 40.6336 53.9401 40.4422 53.7958 40.3029ZM52.6584 38.4415C52.8569 38.4415 53.0462 38.3624 53.1865 38.2226L53.7853 37.6238C54.0779 37.3317 54.0779 36.8577 53.7858 36.5651C53.4937 36.2725 53.0197 36.2725 52.7271 36.5646L52.1284 37.1634C51.9139 37.3773 51.8498 37.6995 51.9655 37.9796C52.0818 38.2591 52.3558 38.442 52.6584 38.4415ZM49.5921 38.2306C49.8847 38.5227 50.3587 38.5217 50.6508 38.2296C50.9429 37.937 50.9424 37.463 50.6498 37.1704L50.0511 36.5716C49.7585 36.2795 49.285 36.28 48.9929 36.5726C48.7008 36.8652 48.7008 37.3392 48.9934 37.6313L49.5921 38.2306Z" fill="black"/>
</svg>
