<svg width="32" height="44" viewBox="0 0 32 44" fill="none" xmlns="http://www.w3.org/2000/svg">
<path d="M9.6993 4.23811e-06C9.49862 -0.000668044 9.30599 0.0786661 9.16413 0.220527C9.02227 0.362384 8.9426 0.555342 8.94361 0.756037V2.5518H0.750319C0.336502 2.55348 0.00168673 2.8883 0 3.30178V42.9227V42.9224C0.00100851 43.3365 0.336158 43.6723 0.750319 43.674H31.244C31.444 43.6747 31.6359 43.596 31.7778 43.4552C31.9197 43.314 31.9993 43.1224 32 42.9224V3.30144V3.30178C31.9983 2.88595 31.6598 2.55012 31.244 2.5518H23.0507V0.756038C23.052 0.340207 22.7165 0.00169113 22.3007 4.40226e-06L9.6993 4.23811e-06ZM10.4493 1.50601H21.5447V4.9416H10.4501V3.36933C10.4535 3.32832 10.4535 3.28697 10.4501 3.24596L10.4493 1.50601ZM1.50617 4.05779H8.94344V5.69762H8.94378C8.94546 6.11345 9.28364 6.44928 9.69947 6.4476H22.3009C22.7144 6.44591 23.0492 6.11109 23.0509 5.69762V4.05779H30.4942V42.1667H1.50651L1.50617 4.05779ZM11.4398 12.2114C11.2438 12.2087 11.0542 12.2827 10.912 12.4175L7.9266 15.1193L6.71035 14.0072H6.71001C6.56176 13.8721 6.36612 13.8015 6.16577 13.8109C5.96542 13.8203 5.77717 13.9087 5.64237 14.057C5.50723 14.2052 5.43664 14.4012 5.44605 14.6016C5.45547 14.8016 5.54421 14.9898 5.69246 15.125L7.42067 16.6985H7.42033C7.70741 16.959 8.1451 16.959 8.4322 16.6985L11.9236 13.5292H11.9239C12.1565 13.3238 12.2396 12.9964 12.1327 12.7049C12.0254 12.4131 11.7504 12.2175 11.4398 12.2114L11.4398 12.2114ZM15.6637 13.7968C15.4613 13.7924 15.2657 13.8697 15.1208 14.0116C14.9762 14.1531 14.8945 14.3471 14.8945 14.5498C14.8945 14.7521 14.9762 14.9461 15.1208 15.088C15.2657 15.2295 15.4613 15.3071 15.6637 15.3028H25.7927C25.995 15.3071 26.1907 15.2295 26.3356 15.088C26.4801 14.9461 26.5618 14.7521 26.5618 14.5498C26.5618 14.3471 26.4801 14.1531 26.3356 14.0116C26.1907 13.8697 25.995 13.7924 25.7927 13.7968H15.6637ZM11.4458 20.3973C11.4176 20.3966 11.3897 20.3976 11.3618 20.4C11.1937 20.4144 11.035 20.485 10.912 20.6L7.92657 23.3061L6.71032 22.1944H6.70998C6.56275 22.0586 6.36743 21.9873 6.16742 21.9957C5.9674 22.0045 5.77881 22.0922 5.64368 22.2398C5.50821 22.3877 5.43761 22.583 5.44668 22.7833C5.45576 22.9834 5.54417 23.1713 5.69242 23.3061L7.42063 24.8796L7.42029 24.88C7.70603 25.1418 8.14371 25.1442 8.43216 24.8857L11.9235 21.7164L11.9239 21.716C12.1568 21.5116 12.2409 21.1852 12.135 20.8934C12.0294 20.602 11.7558 20.405 11.4458 20.3973L11.4458 20.3973ZM15.5917 21.9843V21.9839C15.1826 22.0129 14.8717 22.3628 14.8915 22.7723C14.911 23.1817 15.2539 23.5004 15.6637 23.4903H25.7927C25.995 23.4947 26.191 23.4174 26.3359 23.2755C26.4808 23.134 26.5625 22.9397 26.5625 22.737C26.5625 22.5346 26.4808 22.3403 26.3359 22.1988C26.191 22.0569 25.995 21.9796 25.7927 21.984H15.6637C15.6398 21.9829 15.6156 21.9829 15.5917 21.984L15.5917 21.9843ZM6.54794 29.032C6.13211 29.0333 5.79628 29.3718 5.79797 29.7877V34.3074C5.79965 34.7209 6.13447 35.0557 6.54794 35.0574H11.0673C11.4832 35.0591 11.8217 34.7232 11.8234 34.3074V29.7877C11.824 29.587 11.7447 29.3944 11.6029 29.2525C11.461 29.1103 11.268 29.031 11.0673 29.032L6.54794 29.032ZM7.30398 30.5394H10.316V33.5514H7.30398V30.5394ZM15.5914 31.2954C15.1826 31.3243 14.872 31.6742 14.8915 32.0834C14.9114 32.4925 15.2539 32.8115 15.6634 32.8014H25.7923C26.2014 32.792 26.5282 32.4575 26.5282 32.0484C26.5282 31.6389 26.2014 31.3048 25.7923 31.2954H15.6634C15.6395 31.294 15.6153 31.294 15.5914 31.2954H15.5914Z" fill="black"/>
</svg>
