<svg width="41" height="44" viewBox="0 0 41 44" fill="none" xmlns="http://www.w3.org/2000/svg">
<path d="M3.57982 36.116V29.7561H7.52377V23.3967H12.0761V17.0368H28.0581V23.3967H32.6105V29.7561H36.5544V36.1156L40.1338 36.116V43.3239H1.14441e-05V36.116L3.57982 36.116ZM27.117 17.979H13.0186V23.3033L27.117 23.3038V17.979ZM31.6693 24.3385L8.46582 24.3389V29.6632H31.6693V24.3385ZM0.943024 42.3829H39.1931V37.0586H21.0411V36.1167H35.6131V30.6987H4.52198V36.1163L7.992 36.1167V37.0586H0.942589L0.943024 42.3829ZM24.0335 8.06906C23.4019 8.86456 22.5063 9.40742 21.509 9.5987V12.4149H24.5266V15.8854H15.7676V12.4149H18.5552L18.5557 9.5987C17.5579 9.40739 16.6619 8.86458 16.0304 8.06863C14.8388 7.98285 13.7296 7.42869 12.945 6.52725C12.1609 5.62621 11.7652 4.45103 11.8451 3.25862V1.14957H15.078V0H24.9866V1.14957H28.2909V3.25862C28.3633 4.46115 27.9554 5.64258 27.157 6.54448C26.3589 7.44636 25.2354 7.99468 24.0333 8.06906H24.0335ZM16.7095 13.3568V14.9436H23.5848V13.3568H16.7095ZM20.5668 12.4149L20.5672 9.67813H19.4975V12.4149H20.5668ZM12.787 2.0914V3.25862C12.7307 4.09449 12.9594 4.9241 13.435 5.6132C13.9109 6.30233 14.606 6.81024 15.4069 7.05371C15.1899 6.53528 15.0781 5.97859 15.0781 5.41643V2.0914H12.787ZM24.0449 0.94183H16.0199V5.41633C16.0208 6.29677 16.371 7.14068 16.9933 7.76294C17.6156 8.38519 18.4594 8.73546 19.3395 8.7363H20.7245C21.6045 8.73546 22.4488 8.38522 23.0711 7.76294C23.6933 7.14065 24.0436 6.2968 24.0449 5.41633L24.0449 0.94183ZM27.3492 2.0914H24.9863L24.9867 5.41643C24.9863 5.97439 24.8757 6.52639 24.6613 7.04112C25.4719 6.80903 26.1795 6.30826 26.6682 5.62127C27.1567 4.93382 27.3968 4.10089 27.3493 3.25873L27.3492 2.0914ZM3.58068 27.0009H4.52251V26.0969H3.58068V27.0009ZM3.58068 25.3153H4.52251V24.4113H3.58068V25.3153ZM4.9535 27.0009H5.89532V26.0969H4.9535V27.0009ZM4.9535 25.3153H5.89532V24.4113H4.9535V25.3153ZM10.4682 11.1093H11.41V10.2053H10.4682V11.1093ZM10.4682 9.42368H11.41V8.51969H10.4682V9.42368ZM12.7824 10.2049H11.8406V11.1089H12.7824V10.2049ZM11.8406 9.42368H12.7824V8.51969H11.8406V9.42368ZM29.28 14.2779H30.2219V13.3344H29.28V14.2779ZM29.28 12.5178H30.2219V11.5743H29.28V12.5178ZM29.28 10.7582H30.2219V9.81466H29.28V10.7582ZM29.28 8.99808H30.2219V8.05499H29.28V8.99808ZM17.3764 36.1163H16.4329V37.0581L17.3764 37.059V36.1163ZM15.6167 36.1163H14.6732V37.0581H15.6167V36.1163ZM13.8566 36.1163H12.9131V37.0581H13.8566V36.1163ZM12.097 36.1163H11.1535V37.0581H12.097V36.1163Z" fill="black"/>
</svg>
